# AST/ASF file generated using VICON BodyLanguage
# -----------------------------------------------
:version 1.10
:name VICON
:units
  mass 1.0
  length 0.45
  angle deg
:documentation
   .ast/.asf automatically generated from VICON data using
   VICON BodyBuilder and BodyLanguage model FoxedUp or BRILLIANT.MOD
:root
   order TX TY TZ RX RY RZ
   axis XYZ
   position 0 0 0  
   orientation 0 0 0 
:bonedata
  begin
     id 1 
     name lhipjoint
     direction 0.702568 -0.596508 0.388042 
     length 2.56661 
     axis 0 0 0  XYZ
  end
  begin
     id 2 
     name lfemur
     direction 0.34202 -0.939693 0  
     length 6.58374  
     axis 0 0 20  XYZ
    dof rx ry rz
    limits (-160.0 20.0)
           (-70.0 70.0)
           (-60.0 70.0)
  end
  begin
     id 3 
     name ltibia
     direction 0.34202 -0.939693 0   
     length 6.62538   
     axis 0 0 20   XYZ
    dof rx
    limits (-10.0 170.0)
  end
  begin
     id 4 
     name lfoot
     direction 0.10455 -0.287249 0.952133   
     length 2.26699   
     axis -90 7.62852e-016 20   XYZ
    dof rx rz
    limits (-45.0 90.0)
           (-70.0 20.0)
  end
  begin
     id 5 
     name ltoes
     direction 1.53572e-011 -4.22322e-011 1   
     length 1.12949   
     axis -90 7.62852e-016 20   XYZ
    dof rx
    limits (-90.0 20.0)
  end
  begin
     id 6 
     name rhipjoint
     direction -0.728055 -0.574632 0.373811   
     length 2.66432  
     axis 0 0 0  XYZ 
  end
  begin
     id 7 
     name rfemur
     direction -0.34202 -0.939693 0   
     length 6.66732   
     axis 0 0 -20   XYZ
    dof rx ry rz
    limits (-160.0 20.0)
           (-70.0 70.0)
           (-70.0 60.0)
  end
  begin
     id 8 
     name rtibia
     direction -0.34202 -0.939693 0   
     length 6.59288   
     axis 0 0 -20   XYZ
    dof rx
    limits (-10.0 170.0)
 end
 begin
     id 9 
     name rfoot
     direction -0.119193 -0.327479 0.93731   
     length 2.38061  
     axis -90 -7.62852e-016 -20   XYZ
    dof rx rz
    limits (-45.0 90.0)
           (-20.0 70.0)
  end
  begin
     id 10 
     name rtoes
     direction -1.53547e-011 -4.21827e-011 1   
     length 1.17899   
     axis -90 -7.62852e-016 -20   XYZ
    dof rx
    limits (-90.0 20.0)
  end
  begin
     id 11 
     name lowerback
     direction -0.000416114 0.999912 -0.0132284   
     length 2.12109   
     axis 0 0 0   XYZ
    dof rx ry rz
    limits (-20.0 45.0)
           (-30.0 30.0)
           (-30.0 30.0)
  end
  begin
     id 12 
     name upperback
     direction -0.00136371 0.99809 0.0617608   
     length 2.10067   
     axis 0 0 0   XYZ
    dof rx ry rz
    limits (-20.0 45.0)
           (-30.0 30.0)
           (-30.0 30.0)
  end
  begin
     id 13 
     name thorax
     direction -3.43026e-005 0.997776 0.0666515   
     length 2.10618   
     axis 0 0 0   XYZ
    dof rx ry rz
    limits (-20.0 45.0)
           (-30.0 30.0)
           (-30.0 30.0)
  end
  begin
     id 14 
     name lowerneck
     direction 0.0398646 0.998418 0.0396592   
     length 1.83817   
     axis 0 0 0   XYZ
    dof rx ry rz
    limits (-20.0 45.0)
           (-30.0 30.0)
           (-30.0 30.0)
  end
  begin
     id 15 
     name upperneck
     direction -0.0367268 0.961527 -0.272244   
     length 1.81975   
     axis 0 0 0   XYZ
    dof rx ry rz
    limits (-20.0 45.0)
           (-30.0 30.0)
           (-30.0 30.0)
  end
  begin
     id 16
     name head
     direction -0.0182665 0.99536 -0.0944669  
     length 1.86026  
     axis 0 0 0   XYZ
    dof rx ry rz
    limits (-20.0 45.0)
           (-30.0 30.0)
           (-30.0 30.0)
  end
  begin
     id 17 
     name lclavicle
     direction 0.924239 0.361045 0.124212  
     length 3.26878  
     axis 0 0 0   XYZ
    dof ry rz
    limits (-20.0 10.0)
           (0.0 20.0)
  end
  begin
     id 18 
     name lhumerus
     direction 1 -4.48968e-011 -2.56583e-027   
     length 4.58538   
     axis 180 -30 -90   XYZ
    dof rx ry rz
    limits (-60.0 90.0)
           (-90.0 90.0)
           (-90.0 90.0)
  end
  begin
     id 19
     name lradius
     direction 1 -4.4898e-011 -5.50375e-027   
     length 2.68935   
     axis 180 -30 -90   XYZ
    dof rx
    limits (-10.0 170.0)
  end
  begin
     id 20
     name lwrist
     direction 1 -4.48939e-011 -1.48955e-026   
     length 1.34468   
     axis 9.0955e-015 90 90   XYZ
    dof ry
    limits (-180.0 0.0)
 end
  begin
     id 21 
     name lhand
     direction 1 -4.48936e-011 -2.97907e-026   
     length 0.585058   
     axis 1.90115e-014 90 90   XYZ
    dof rx rz
    limits (-90.0 90.0)
           (-45.0 45.0)
  end
  begin
     id 22 
     name lfingers
     direction 1 -4.49082e-011 -5.96235e-026   
     length 0.471689   
     axis 3.80223e-014 90 90   XYZ
    dof rx
    limits (0.0 90.0)
  end
  begin
     id 23
     name lthumb
     direction 0.707107 -6.3489e-011 0.707107   
     length 0.677253   
     axis -90 45 -3.84942e-014   XYZ
    dof rx rz
    limits (-45.0 45.0)
           (-45.0 45.0)
  end
  begin
     id 24 
     name rclavicle
     direction -0.923098 0.371783 0.0983239   
     length 3.19656  
     axis 0 0 0   XYZ 
    dof ry rz
    limits (-10.0 20.0)
           (-20.0 0.0)
  end
  begin
     id 25 
     name rhumerus
     direction -1 -4.48976e-011 -2.5492e-027  
     length 4.4745   
     axis 180 30 90   XYZ
    dof rx ry rz
    limits (-90.0 60.0)
           (-90.0 90.0)
           (-90.0 90.0)
  end
  begin
     id 26 
     name rradius
     direction -1 -4.48941e-011 -4.36555e-027   
     length 2.93896   
     axis 180 30 90   XYZ
    dof rx
    limits (-10.0 170.0)
  end
  begin
     id 27 
     name rwrist
     direction -1 -4.49044e-011 -1.49032e-026   
     length 1.46948   
     axis 9.0955e-015 -90 -90   XYZ
    dof ry
    limits (-180.0 0.0)
  end
  begin
     id 28
     name rhand
     direction -1 -4.48826e-011 -2.97749e-026   
     length 0.405092   
     axis 1.90115e-014 -90 -90   XYZ
    dof rx rz
    limits (-90.0 90.0)
           (-45.0 45.0)
  end
  begin
     id 29
     name rfingers
     direction -1 -4.49209e-011 -5.96602e-026   
     length 0.326596   
     axis 3.80223e-014 -90 -90   XYZ
    dof rx
    limits (0.0 90.0)
  end
  begin
     id 30
     name rthumb
     direction -0.707107 -6.34776e-011 0.707107   
     length 0.468928   
     axis -90 -45 3.84942e-014   XYZ
    dof rx rz
    limits (-45.0 45.0)
           (-45.0 45.0)
  end
:hierarchy
  begin
    root lhipjoint rhipjoint lowerback
    lhipjoint lfemur
    lfemur ltibia
    ltibia lfoot
    lfoot ltoes
    rhipjoint rfemur
    rfemur rtibia
    rtibia rfoot
    rfoot rtoes
    lowerback upperback
    upperback thorax
    thorax lowerneck lclavicle rclavicle
    lowerneck upperneck
    upperneck head
    lclavicle lhumerus
    lhumerus lradius
    lradius lwrist
    lwrist lhand lthumb
    lhand lfingers
    rclavicle rhumerus
    rhumerus rradius
    rradius rwrist
    rwrist rhand rthumb
    rhand rfingers
  end

#!OML:ASF H:\Punching\Project 1\Capture day 1\Session 1\female.ASF
:FULLY-SPECIFIED
:DEGREES
302
root 0.961496 14.226 1.58652 19.4284 -3.98714 -1.63896
lowerback 6.44827 -2.27764 1.74806
upperback -3.41486 -2.74238 2.21536
thorax -7.17173 -1.3741 1.68745
lowerneck -11.6051 2.07224 9.89521
upperneck 20.9979 1.29809 -2.40569
head 8.56229 1.12957 -2.32485
rclavicle 3.33461e-014 -2.62396e-014
rhumerus 0.856549 7.50376 -79.0404
rradius 138.193
rwrist -49.728
rhand -10.1716 -16.9042
rfingers 7.12502
rthumb 15.8184 -46.2779
lclavicle 3.33461e-014 -2.62396e-014
lhumerus 22.9782 -42.456 80.4856
lradius 134.556
lwrist 9.67605
lhand -27.6013 6.76899
lfingers 7.12502
lthumb -1.00082 36.7464
rfemur 1.52952 -5.27415 5.94505
rtibia 15.2965
rfoot -22.6164 -28.3767
rtoes -19.5434
lfemur -61.2553 0.420227 -11.8935
ltibia 58.664
lfoot -13.4488 5.15723
ltoes -4.90514
303
root 0.952486 14.2251 1.59846 19.2611 -3.07561 -1.26086
lowerback 6.30739 -2.02489 1.9876
upperback -3.46085 -2.38811 2.14847
thorax -7.15688 -1.21317 1.43427
lowerneck -11.8251 1.43562 9.17226
upperneck 21.0179 0.459736 -1.9989
head 8.54691 0.721597 -2.15753
rclavicle -1.48095e-014 1.98785e-016
rhumerus 2.10382 6.84369 -78.4
rradius 136.839
rwrist -48.369
rhand -11.2439 -17.3416
rfingers 7.12502
rthumb 14.7855 -46.7942
lclavicle -1.48095e-014 1.98785e-016
lhumerus 22.8308 -42.9515 80.8639
lradius 134.513
lwrist 9.89983
lhand -27.5381 6.80619
lfingers 7.12502
lthumb -0.939781 36.7839
rfemur 2.44372 -5.20356 5.95209
rtibia 14.7138
rfoot -22.6432 -29.1905
rtoes -19.0179
lfemur -61.2298 0.160673 -12.4612
ltibia 58.4243
lfoot -13.1832 4.46742
ltoes -4.79298
304
root 0.942276 14.223 1.60904 19.0888 -2.07343 -0.875818
lowerback 6.17275 -1.74637 2.26984
upperback -3.51039 -1.99619 2.07138
thorax -7.14762 -1.03603 1.14316
lowerneck -12.0015 0.749591 8.41035
upperneck 21.0143 -0.435246 -1.57111
head 8.52298 0.286121 -1.98221
rclavicle 5.86415e-015 5.96354e-015
rhumerus 3.45894 5.97202 -77.6761
rradius 135.262
rwrist -47.0965
rhand -12.233 -17.8498
rfingers 7.12502
rthumb 13.8325 -47.3698
lclavicle 5.86415e-015 5.96354e-015
lhumerus 22.6861 -43.4689 81.1916
lradius 134.496
lwrist 10.1197
lhand -27.4552 6.81789
lfingers 7.12502
lthumb -0.859697 36.7959
rfemur 3.37284 -5.17474 5.99491
rtibia 14.1819
rfoot -22.7073 -30.0496
rtoes -18.4678
lfemur -61.2127 -0.107774 -13.0571
ltibia 58.18
lfoot -12.8969 3.71459
ltoes -4.64852
305
root 0.931404 14.2197 1.61818 18.921 -0.991471 -0.502607
lowerback 6.04166 -1.44867 2.60093
upperback -3.56176 -1.57425 1.99784
thorax -7.13867 -0.846434 0.825915
lowerneck -12.1396 0.0268609 7.61528
upperneck 20.9847 -1.36808 -1.13824
head 8.4933 -0.16943 -1.80308
rclavicle 7.85199e-015 3.57812e-015
rhumerus 4.9543 4.83629 -76.8695
rradius 133.435
rwrist -45.9209
rhand -12.9565 -18.4846
rfingers 7.12502
rthumb 13.1351 -48.0509
lclavicle 7.85199e-015 3.57812e-015
lhumerus 22.5756 -43.9645 81.4504
lradius 134.48
lwrist 10.3062
lhand -27.3556 6.82324
lfingers 7.12502
lthumb -0.763572 36.8016
rfemur 4.30373 -5.18543 6.08805
rtibia 13.6907
rfoot -22.7987 -30.944
rtoes -17.8905
lfemur -61.213 -0.399605 -13.6483
ltibia 57.9418
lfoot -12.5973 2.92751
ltoes -4.42879
306
root 0.920146 14.2152 1.62577 18.7621 0.152073 -0.152204
lowerback 5.92005 -1.13767 2.9729
upperback -3.61745 -1.12995 1.93925
thorax -7.1343 -0.647529 0.500198
lowerneck -12.2319 -0.719058 6.79249
upperneck 20.9242 -2.3187 -0.711697
head 8.45684 -0.636686 -1.62262
rclavicle -1.15295e-014 1.82882e-014
rhumerus 6.60802 3.44289 -75.9838
rradius 131.293
rwrist -44.8045
rhand -13.3088 -19.2534
rfingers 7.12502
rthumb 12.7955 -48.8413
lclavicle -1.15295e-014 1.82882e-014
lhumerus 22.5143 -44.4419 81.6224
lradius 134.447
lwrist 10.3634
lhand -27.2837 6.89997
lfingers 7.12502
lthumb -0.694141 36.8786
rfemur 5.11256 -5.23726 6.23415
rtibia 13.4598
rfoot -23.0476 -31.8487
rtoes -17.2743
lfemur -61.2474 -0.728821 -14.2078
ltibia 57.7572
lfoot -12.3176 2.1365
ltoes -4.123
307
root 0.909109 14.2095 1.6317 18.6163 1.33296 0.161276
lowerback 5.80628 -0.816048 3.38651
upperback -3.67907 -0.666261 1.90473
thorax -7.13429 -0.440652 0.175474
lowerneck -12.2704 -1.47756 5.94813
upperneck 20.8307 -3.27165 -0.302726
head 8.41243 -1.10933 -1.4438
rclavicle -1.39149e-015 1.51076e-014
rhumerus 8.43863 1.8339 -75.0266
rradius 128.753
rwrist -43.6482
rhand -13.1902 -20.1765
rfingers 7.12502
rthumb 12.9098 -49.7572
lclavicle -1.39149e-015 1.51076e-014
lhumerus 22.4879 -44.8878 81.7236
lradius 134.398
lwrist 10.3078
lhand -27.243 7.06525
lfingers 7.12502
lthumb -0.654777 37.044
rfemur 5.87202 -5.34193 6.43152
rtibia 13.3007
rfoot -23.3252 -32.7346
rtoes -16.646
lfemur -61.3061 -1.10295 -14.7097
ltibia 57.5971
lfoot -12.0394 1.37149
ltoes -3.73054
308
root 0.896928 14.1869 1.63256 18.4806 2.52115 0.427323
lowerback 5.71769 -0.488272 3.83123
upperback -3.74829 -0.188382 1.90403
thorax -7.14976 -0.227812 -0.13127
lowerneck -12.2545 -2.23523 5.08016
upperneck 20.7058 -4.20829 0.0840317
head 8.36107 -1.57939 -1.26583
rclavicle 4.57205e-015 -4.77083e-015
rhumerus 10.4604 0.0912581 -74.0088
rradius 125.723
rwrist -42.3466
rhand -12.5661 -21.2748
rfingers 7.12502
rthumb 13.5114 -50.8164
lclavicle 4.57205e-015 -4.77083e-015
lhumerus 22.5137 -45.2935 81.7346
lradius 134.337
lwrist 10.1613
lhand -27.2362 7.33325
lfingers 7.12502
lthumb -0.648183 37.312
rfemur 6.55769 -5.49584 6.66579
rtibia 13.2629
rfoot -23.6639 -33.5732
rtoes -16.0183
lfemur -61.4778 -1.51053 -15.1227
ltibia 57.5246
lfoot -11.7324 0.649501
ltoes -3.2802
309
root 0.887049 14.1784 1.63405 18.3516 3.6958 0.646863
lowerback 5.64982 -0.166762 4.2916
upperback -3.82105 0.28626 1.94638
thorax -7.17444 -0.0166143 -0.40003
lowerneck -12.1894 -2.97417 4.192
upperneck 20.5561 -5.10468 0.438926
head 8.30593 -2.03622 -1.09014
rclavicle 5.76476e-015 1.11319e-014
rhumerus 12.681 -1.66514 -72.943
rradius 122.09
rwrist -40.8278
rhand -11.489 -22.4563
rfingers 7.12502
rthumb 14.5494 -51.9261
lclavicle 5.76476e-015 1.11319e-014
lhumerus 22.5768 -45.6162 81.6739
lradius 134.271
lwrist 9.9832
lhand -27.2313 7.65087
lfingers 7.12502
lthumb -0.643451 37.6296
rfemur 7.12532 -5.72717 6.93652
rtibia 13.3544
rfoot -24.0145 -34.3334
rtoes -15.4197
lfemur -61.5734 -1.98714 -15.4555
ltibia 57.4219
lfoot -11.4659 0.0243207
ltoes -2.83328
310
root 0.877751 14.1684 1.63264 18.232 4.84033 0.826822
lowerback 5.59964 0.147352 4.75602
upperback -3.89702 0.754458 2.01892
thorax -7.20712 0.191511 -0.637626
lowerneck -12.0663 -3.6879 3.31501
upperneck 20.3782 -5.95973 0.763415
head 8.24258 -2.47695 -0.920923
rclavicle -1.39149e-014 -2.8625e-014
rhumerus 15.0889 -3.3642 -71.8506
rradius 117.775
rwrist -39.0738
rhand -10.1129 -23.6152
rfingers 7.12502
rthumb 15.8749 -52.9844
lclavicle -1.39149e-014 -2.8625e-014
lhumerus 22.6764 -45.8651 81.5432
lradius 134.201
lwrist 9.8237
lhand -27.2064 7.98293
lfingers 7.12502
lthumb -0.61942 37.9618
rfemur 7.56097 -6.03712 7.21767
rtibia 13.6138
rfoot -24.4048 -35.0022
rtoes -14.8742
lfemur -61.6861 -2.52408 -15.6981
ltibia 57.3426
lfoot -11.2101 -0.497756
ltoes -2.45523
